    <svg xmlns="http://www.w3.org/2000/svg" style="display: none;"><defs/><symbol id="account-profile" viewBox="0 0 24 24"><path role="presentation" d="M12 12a3.5 3.5 0 100-7 3.5 3.5 0 000 7zm6.762 7a7.073 7.073 0 00-13.524 0h13.524zM4 21a1 1 0 01-1-1h-.008a9.08 9.08 0 01.02-.159 9.08 9.08 0 015.454-7.127 5.5 5.5 0 117.068 0A9.08 9.08 0 0121.008 20H21a1 1 0 01-1 1H4z"/></symbol><symbol id="brand-github" viewBox="0 0 24 24"><path role="presentation" d="M12 2C6.477 2 2 6.477 2 12c0 4.418 2.865 8.166 6.839 9.489.5.092.682-.217.682-.482 0-.237-.008-.866-.013-1.7-2.782.603-3.369-1.342-3.369-1.342-.454-1.155-1.11-1.462-1.11-1.462-.908-.62.069-.608.069-.608 1.003.07 1.531 1.03 1.531 1.03.892 1.529 2.341 1.087 2.91.831.092-.646.35-1.086.636-1.336-2.22-.253-4.555-1.11-4.555-4.943 0-1.091.39-1.984 1.029-2.683-.103-.253-.446-1.27.098-2.647 0 0 .84-.268 2.75 1.026A9.578 9.578 0 0112 6.836c.85.004 1.705.114 2.504.337 1.909-1.294 2.747-1.026 2.747-1.026.546 1.377.203 2.394.1 2.647.64.699 1.028 1.592 1.028 2.683 0 3.842-2.339 4.687-4.566 4.935.359.309.678.919.678 1.852 0 1.336-.012 2.415-.012 2.743 0 .267.18.579.688.481C19.137 20.163 22 16.418 22 12c0-5.523-4.478-10-10-10"/></symbol><symbol id="brand-linkedin" viewBox="0 0 24 24"><path role="presentation" d="M19.668 3c.688 0 1.257.51 1.325 1.165l.007.132v15.404c0 .672-.526 1.226-1.196 1.292l-.136.007H4.328a1.319 1.319 0 01-1.321-1.166L3 19.7V4.297a1.31 1.31 0 011.193-1.29L4.329 3h15.339zm-4.532 6.535c-1.223 0-2.066.63-2.458 1.268l-.069.119h-.035V9.748h-2.56v8.59h2.666v-4.25c0-1.12.214-2.205 1.603-2.205 1.205 0 1.363.993 1.384 1.91l.003.368v4.177h2.668v-4.711l-.005-.391c-.06-2.12-.649-3.701-3.197-3.701zm-6.797.213h-2.67v8.59h2.67v-8.59zm-1.335-4.27a1.548 1.548 0 100 3.096 1.548 1.548 0 000-3.096z"/></symbol><symbol id="cart" viewBox="0 0 24 24"><path role="presentation" d="M9.25 18.5a1.25 1.25 0 110 2.5 1.25 1.25 0 010-2.5zm7.5 0a1.25 1.25 0 110 2.5 1.25 1.25 0 010-2.5zM6 3c.317 0 .6.147.782.377.085.105.15.23.187.369L7.573 6H20a1 1 0 01.936.648c.073.19.089.404.032.616l-1.607 5.998a1 1 0 01-1.048.738H9.168l-.402 1.5H18a1 1 0 010 2H7.47a1 1 0 01-.864-.497.997.997 0 01-.107-.77l.873-3.258L5.236 5H4a1 1 0 110-2h2zm12.7 5H8.11l1.071 4h8.447L18.7 8z"/></symbol><symbol id="location-pin-stroke" viewBox="0 0 24 24"><path role="presentation" d="M12 2a8 8 0 018 8c0 2.81-2.428 6.713-7.284 11.698a1.006 1.006 0 01-1.432 0C6.428 16.713 4 12.811 4 10a8 8 0 018-8zm0 2a6 6 0 00-6 6c0 2.013 1.968 5.282 6 9.552 4.032-4.27 6-7.539 6-9.552a6 6 0 00-6-6zm0 4.5a1.5 1.5 0 110 3 1.5 1.5 0 010-3z"/></symbol><symbol id="experiences-outdoor-basics" viewBox="0 0 24 24"><path role="presentation" d="M13.988 7.013l-1.613-1.606v1.936l2.137 2.137c.15.15.15.39 0 .532a.352.352 0 01-.262.113.375.375 0 01-.262-.105l-1.613-1.612v1.934l2.137 2.138c.15.15.15.39 0 .532a.352.352 0 01-.262.113.352.352 0 01-.262-.113L12.375 11.4v1.942l2.137 2.138c.15.15.15.39 0 .532a.352.352 0 01-.262.113.375.375 0 01-.262-.105l-1.613-1.612V19.5c0 .21-.165.375-.375.375a.371.371 0 01-.375-.375v-5.1l-1.613 1.612a.352.352 0 01-.262.113.352.352 0 01-.262-.113.385.385 0 010-.532l2.137-2.138V11.4l-1.613 1.612a.352.352 0 01-.262.113.375.375 0 01-.262-.105.385.385 0 010-.532l2.137-2.138V8.408l-1.613 1.604a.352.352 0 01-.262.113.375.375 0 01-.262-.105.385.385 0 010-.532l2.137-2.138V5.408l-1.613 1.604a.352.352 0 01-.262.113.375.375 0 01-.262-.105.385.385 0 010-.532l2.25-2.258c.03-.038.075-.06.12-.083a.375.375 0 01.284 0 .429.429 0 01.12.083l2.25 2.25c.15.15.15.39 0 .532a.352.352 0 01-.262.113.352.352 0 01-.262-.112zm-6 1.5l-.863-.856v1.185l1.387 1.388c.15.15.15.39 0 .532a.352.352 0 01-.262.113.375.375 0 01-.263-.105l-.862-.862v1.184l1.387 1.388c.15.15.15.39 0 .532a.352.352 0 01-.262.113.375.375 0 01-.263-.105l-.862-.862v5.092c0 .21-.165.375-.375.375a.371.371 0 01-.375-.375v-5.092l-.862.854a.352.352 0 01-.263.113.375.375 0 01-.263-.105.385.385 0 010-.532L6.375 11.1V9.908l-.862.854a.352.352 0 01-.263.113.375.375 0 01-.263-.105.385.385 0 010-.532L6.375 8.85V7.658l-.862.854a.352.352 0 01-.263.113.375.375 0 01-.263-.105.385.385 0 010-.532l1.5-1.5a.266.266 0 01.12-.083.375.375 0 01.285 0 .27.27 0 01.12.082l1.5 1.493c.15.15.15.39 0 .532a.352.352 0 01-.262.113.352.352 0 01-.263-.113zm10.5 2.25l-.863-.855v1.184l1.387 1.388c.15.15.15.39 0 .532a.352.352 0 01-.262.113.375.375 0 01-.262-.105l-.863-.862v5.092c0 .21-.165.375-.375.375a.371.371 0 01-.375-.375v-5.1l-.863.862a.352.352 0 01-.262.113.375.375 0 01-.262-.105.385.385 0 010-.532l1.387-1.388V9.908l-.863.854a.352.352 0 01-.262.113.375.375 0 01-.262-.105.385.385 0 010-.532l1.387-1.388V7.658l-.863.854a.352.352 0 01-.262.113.352.352 0 01-.262-.113.385.385 0 010-.532l1.5-1.5c.03-.038.075-.06.12-.083a.375.375 0 01.284 0 .429.429 0 01.12.083l1.5 1.5c.15.15.15.39 0 .532a.352.352 0 01-.262.113.375.375 0 01-.262-.105l-.863-.862v1.184l1.387 1.388c.15.15.15.39 0 .532a.352.352 0 01-.262.113.352.352 0 01-.262-.113z"/></symbol></svg>